<svg width="36" height="26" viewBox="0 0 36 26" fill="none" xmlns="http://www.w3.org/2000/svg">
<path d="M2.24997 0.0620117H33.75C34.992 0.0620117 36 1.06996 36 2.31309V23.6881C36 24.9301 34.992 25.9381 33.75 25.9381H2.24997C1.00684 25.9382 0 24.9301 0 23.6882V2.31309C0 1.06996 1.00795 0.0620117 2.24997 0.0620117Z" fill="#26A6D1"/>
<path d="M5.80501 9.06201L2.24997 16.9292H6.50585L7.03345 15.6748H8.23944L8.76704 16.9292H13.4516V15.9718L13.869 16.9292H16.2922L16.7096 15.9516V16.9292H26.4522L27.6368 15.7074L28.7461 16.9292L33.75 16.9393L30.1838 13.0176L33.75 9.06201H28.8237L27.6705 10.2612L26.5962 9.06201H15.9975L15.0874 11.0926L14.156 9.06201H9.90899V9.9868L9.43654 9.06201C9.43654 9.06201 5.80501 9.06201 5.80501 9.06201ZM6.62849 10.1792H8.70301L11.0611 15.5139V10.1792H13.3336L15.1549 14.0042L16.8335 10.1792H19.0947V15.8244H17.7188L17.7076 11.4008L15.7017 15.8244H14.4709L12.4537 11.4008V15.8244H9.62323L9.08662 14.5588H6.18751L5.65201 15.8233H4.13545L6.62849 10.1792ZM20.3535 10.1792H25.9481L27.6593 12.0275L29.4255 10.1792H31.1367L28.5368 13.0165L31.1367 15.821H29.3479L27.6368 13.9512L25.8615 15.821H20.3535V10.1792ZM7.63768 11.1343L6.68254 13.3888H8.59171L7.63768 11.1343ZM21.7351 11.348V12.3785H24.7872V13.5272H21.7351V14.6522H25.1584L26.7492 12.9951L25.2259 11.347H21.7351V11.348Z" fill="white"/>
</svg>
