<svg width="57" height="37" viewBox="0 0 57 37" fill="none" xmlns="http://www.w3.org/2000/svg">
<path d="M9.58531 0.118195C8.81755 0.159569 8.7652 0.171391 8.35806 0.372349C7.54378 0.780178 6.9098 1.62539 6.72367 2.54152L6.64806 2.9257L3.32694 2.94344L0 2.95526V3.84184V4.72842H6.54337H13.0867V3.84775V2.96117L10.8649 2.94344C8.63143 2.9257 8.37551 2.90206 8.37551 2.71292C8.37551 2.67746 8.56745 2.44695 8.8001 2.20462L9.21888 1.76133L22.9745 1.79679C30.5415 1.81452 36.9744 1.8559 37.271 1.87954C37.7014 1.92091 37.8352 1.95638 37.9341 2.05685L38.0562 2.18098L37.8992 3.11484C37.4222 5.9519 34.8107 21.0001 34.7526 21.2661L34.7177 21.4021L19.9326 21.3784C11.8013 21.3666 5.07765 21.337 4.99041 21.3134C4.80429 21.2602 4.79847 21.2011 4.89153 20.6455L4.95551 20.2731H9.02112H13.0867V19.3866V18.5H6.54337H0V19.3866V20.2731H1.63439C2.58827 20.2731 3.25133 20.2968 3.23388 20.3263C3.12337 20.5037 1.7449 28.8198 1.7449 29.2808C1.75071 29.86 2.13459 30.5752 2.66969 31.0067C2.9198 31.2077 3.04776 31.2668 3.28041 31.2904C3.44327 31.3081 4.72286 31.3377 6.11878 31.3613L8.66051 31.3968L8.68959 31.645C8.70123 31.7751 8.74776 32.1947 8.78265 32.5671C8.9048 33.8319 9.30031 34.7067 10.1437 35.5519C11.1499 36.5685 12.3364 37 13.9185 36.9231C15.5645 36.8463 17.0011 36.1548 18.3214 34.8131C19.159 33.962 19.6068 33.2291 20.0082 32.0351C20.1129 31.7278 20.2176 31.4559 20.235 31.4323C20.2525 31.4145 23.9109 31.385 28.3546 31.3791L36.4393 31.3554L36.4742 32.1238C36.5149 32.9749 36.6196 33.4537 36.9046 34.0802C37.1605 34.6535 37.492 35.1263 37.9341 35.5578C38.3761 35.9952 38.7135 36.2316 39.2777 36.4976C39.8709 36.7813 40.2955 36.8877 41.0342 36.9231C42.9478 37.0118 44.7508 36.2434 46.1816 34.7185C46.9785 33.8733 47.4147 33.1168 47.8044 31.9051L47.9905 31.3318L50.6195 31.314L53.2485 31.2963L53.7021 31.0776C54.4874 30.6934 55.0574 30.0315 55.2202 29.3163C55.511 28.0396 56.8197 20.3204 56.9477 19.162C57.0698 17.9799 56.9767 17.5188 56.273 15.6925C55.732 14.3035 52.8646 7.31724 52.6087 6.76756C52.4342 6.4011 52.283 6.18241 51.9165 5.80414L51.4396 5.31947L47.0832 5.31356C42.7151 5.31356 39.4114 5.25446 39.3416 5.18353C39.3242 5.1658 39.3998 4.58065 39.5161 3.88912C39.7604 2.43513 39.772 2.1396 39.6034 1.64312C39.394 0.998867 39.0683 0.62059 38.4401 0.27187L38.0562 0.0590897L24.2192 0.0709114C16.6114 0.0709114 10.0215 0.0945549 9.58531 0.118195ZM47.3449 7.09264H50.8754L51.1779 7.7428C51.3407 8.09743 51.4745 8.41069 51.4745 8.44024C51.4745 8.5289 49.8052 8.57027 46.298 8.57027C42.5813 8.57618 42.0404 8.60574 41.61 8.82442C40.8597 9.21452 40.7259 9.61053 40.0745 13.3578C39.8128 14.865 39.6092 16.3013 39.6092 16.6382C39.615 17.2174 39.9989 17.7848 40.4991 17.9385C41.0516 18.1099 42.4941 18.1394 48.9386 18.1454H55.3307L55.29 18.5709C55.2435 19.0378 54.1733 25.5926 53.8301 27.5136C53.7138 28.1637 53.58 28.7725 53.5393 28.873C53.4986 28.9676 53.359 29.1744 53.2194 29.334L52.9751 29.6118H50.4799C48.5314 29.6118 47.9789 29.5941 47.9614 29.535C47.9498 29.4995 47.9033 29.2394 47.8509 28.9616C47.5543 27.3835 46.1816 25.9768 44.4367 25.4744C43.4596 25.1907 42.4301 25.2557 41.1447 25.6813C40.0978 26.03 39.5336 26.3906 38.603 27.2949C37.9166 27.9746 37.4455 28.5775 37.1605 29.1449L36.9337 29.6118H28.5989H20.2641L20.1361 29.0739C19.6825 27.1826 18.3447 25.8704 16.4369 25.4271C15.7797 25.2794 14.6513 25.303 13.9534 25.4922C11.9467 26.03 10.2833 27.3835 9.34684 29.2454L9.16072 29.6236L6.45612 29.6C3.48398 29.5763 3.4898 29.5763 3.4898 29.2394C3.4898 28.8907 4.37388 23.3112 4.43786 23.2461C4.44367 23.2461 11.5861 23.2225 20.3164 23.1989C29.0409 23.1693 36.1776 23.1398 36.1776 23.1279C36.1776 23.0866 38.0271 12.3944 38.4517 9.9888C38.6437 8.90126 38.824 7.92602 38.8589 7.81963C38.8938 7.71324 39.0392 7.48864 39.1904 7.32315L39.4638 7.0158L41.6391 7.05126C42.8372 7.0749 45.4022 7.09264 47.3449 7.09264ZM45.4371 10.3789L45.6989 10.4144L45.7338 11.0172C45.8327 12.6722 45.949 14.9477 45.9664 15.6156L45.9839 16.3722H43.9133C42.7791 16.3722 41.7496 16.3545 41.6333 16.3367C41.4471 16.3013 41.4122 16.2776 41.4122 16.1476C41.4122 15.9821 42.1102 11.7561 42.2731 10.9345C42.3661 10.4557 42.3778 10.4321 42.5464 10.3966C42.7791 10.3434 45.1056 10.3316 45.4371 10.3789ZM52.3062 10.4439C52.3237 10.503 52.5563 11.0941 52.8297 11.762C53.0972 12.4299 53.6265 13.7243 53.9988 14.6404C54.371 15.5565 54.6735 16.319 54.6735 16.3367C54.6735 16.3545 53.1205 16.3722 51.2186 16.3722H47.7637L47.7288 15.9998C47.7113 15.7989 47.6532 14.7823 47.6066 13.742C47.5078 11.7856 47.4205 10.4735 47.3682 10.3907C47.3507 10.3671 48.45 10.3434 49.8052 10.3434C52.1085 10.3434 52.2771 10.3493 52.3062 10.4439ZM16.4777 27.2358C17.3268 27.549 18.0597 28.2819 18.3854 29.139C18.5773 29.6414 18.6064 30.5634 18.4436 31.2136C18.0539 32.7976 16.7859 34.2516 15.1864 34.9254C14.4303 35.2505 12.8425 35.2209 12.1096 34.8722C11.6327 34.6476 10.9696 33.9797 10.7428 33.5009C10.0622 32.0588 10.481 30.1615 11.7955 28.7193C12.4237 28.0278 13.395 27.4367 14.3082 27.1885C14.9014 27.0289 15.9775 27.0525 16.4777 27.2358ZM44.2041 27.2476C45.536 27.7027 46.298 28.808 46.298 30.2915C46.298 32.1652 44.9486 34.0802 43.099 34.8308C42.244 35.1736 41.2552 35.2564 40.4584 35.0495C39.8826 34.9017 39.5161 34.7008 39.0566 34.2634C38.4401 33.6901 38.2191 33.0636 38.2133 31.8815C38.2133 31.2017 38.3063 30.7762 38.5855 30.1733C39.3009 28.6425 40.6561 27.5136 42.1975 27.1648C42.7616 27.0348 43.6981 27.0762 44.2041 27.2476Z" fill="#262523"/>
</svg>
