<svg width="44" height="44" viewBox="0 0 44 44" fill="none" xmlns="http://www.w3.org/2000/svg">
<path d="M27.9493 11.3282H16.0515V32.7089H27.9493V11.3282Z" fill="#FF5F00"/>
<path d="M16.8068 22.0193C16.805 19.9602 17.2716 17.9277 18.1714 16.0756C19.0711 14.2234 20.3805 12.6003 22.0003 11.329C19.9944 9.75233 17.5853 8.77181 15.0485 8.49953C12.5117 8.22725 9.94947 8.6742 7.65467 9.78929C5.35986 10.9044 3.42507 12.6426 2.07145 14.8053C0.717834 16.968 0 19.4679 0 22.0193C0 24.5707 0.717834 27.0706 2.07145 29.2333C3.42507 31.396 5.35986 33.1343 7.65467 34.2494C9.94947 35.3644 12.5117 35.8114 15.0485 35.5391C17.5853 35.2668 19.9944 34.2863 22.0003 32.7096C20.3805 31.4383 19.0711 29.8152 18.1714 27.9631C17.2716 26.111 16.805 24.0784 16.8068 22.0193Z" fill="#EB001B"/>
<path d="M44 22.0193C44.0001 24.5707 43.2824 27.0706 41.9288 29.2333C40.5753 31.396 38.6406 33.1342 36.3458 34.2493C34.051 35.3644 31.4888 35.8114 28.952 35.5391C26.4153 35.2668 24.0063 34.2863 22.0004 32.7096C23.6188 31.4371 24.9271 29.8137 25.8268 27.9618C26.7264 26.11 27.1938 24.0781 27.1938 22.0193C27.1938 19.9605 26.7264 17.9286 25.8268 16.0768C24.9271 14.225 23.6188 12.6016 22.0004 11.329C24.0063 9.75232 26.4153 8.77181 28.952 8.49953C31.4888 8.22726 34.051 8.67421 36.3458 9.78931C38.6406 10.9044 40.5753 12.6426 41.9288 14.8054C43.2824 16.9681 44.0001 19.468 44 22.0193Z" fill="#F79E1B"/>
<path d="M42.7028 30.4446V30.0069H42.8793V29.9177H42.4298V30.0069H42.6064V30.4446H42.7028ZM43.5755 30.4446V29.9169H43.4377L43.2792 30.2799L43.1207 29.9169H42.9828V30.4446H43.0801V30.0465L43.2288 30.3898H43.3296L43.4783 30.0457V30.4446H43.5755Z" fill="#F79E1B"/>
</svg>
