<svg width="84" height="84" viewBox="0 0 84 84" fill="none" xmlns="http://www.w3.org/2000/svg">
<path d="M56.6827 30.8446H50.1482C49.7021 30.8446 49.3218 31.1694 49.2521 31.6108L46.6096 48.3646C46.5571 48.6952 46.8131 48.9932 47.1465 48.9932H50.4998C50.8112 48.9932 51.0778 48.7659 51.1265 48.4563L51.8764 43.7073C51.9452 43.265 52.3264 42.9402 52.7725 42.9402H54.8399C59.1447 42.9402 61.6276 40.8575 62.2772 36.7305C62.5705 34.9249 62.2887 33.5062 61.4432 32.5126C60.5156 31.4216 58.8695 30.8446 56.6827 30.8446ZM57.4365 36.9636C57.0802 39.308 55.2889 39.308 53.5559 39.308H52.571L53.2636 34.9296C53.3047 34.665 53.532 34.4701 53.8005 34.4701H54.2523C55.4312 34.4701 56.5452 34.4701 57.1203 35.1427C57.4633 35.5439 57.5674 36.1401 57.4365 36.9636Z" fill="#179BD7"/>
<path d="M76.2117 36.8882H73.0848C72.8164 36.8882 72.5881 37.0831 72.5479 37.3478L72.4094 38.2229L72.1897 37.9057C71.5123 36.9226 70.0029 36.594 68.4954 36.594C65.038 36.594 62.086 39.2126 61.5109 42.8859C61.2128 44.7182 61.636 46.4703 62.6754 47.6922C63.6308 48.8157 64.9931 49.2838 66.6162 49.2838C69.402 49.2838 70.9468 47.4925 70.9468 47.4925L70.8073 48.3619C70.7548 48.6944 71.0108 48.9924 71.3461 48.9924H74.1634C74.6096 48.9924 74.9898 48.6676 75.0595 48.2253L76.7514 37.5169C76.803 37.1873 76.547 36.8882 76.2117 36.8882ZM71.8505 42.9776C71.5506 44.765 70.13 45.9649 68.3206 45.9649C67.4139 45.9649 66.686 45.6736 66.2198 45.1214C65.7574 44.573 65.5835 43.7925 65.7287 42.9231C66.0124 41.151 67.4531 39.9119 69.2348 39.9119C70.1233 39.9119 70.8455 40.2071 71.3213 40.7641C71.7999 41.3268 71.9891 42.112 71.8505 42.9776Z" fill="#179BD7"/>
<path d="M79.9004 31.3042L77.2188 48.3647C77.1663 48.6953 77.4223 48.9933 77.7557 48.9933H80.4517C80.8997 48.9933 81.28 48.6685 81.3487 48.2262L83.9931 31.4733C84.0457 31.1428 83.7896 30.8438 83.4562 30.8438H80.4374C80.1708 30.8447 79.9415 31.0396 79.9004 31.3042Z" fill="#179BD7"/>
<path d="M10.08 30.8446H3.5464C3.0993 30.8446 2.71907 31.1694 2.64933 31.6108L0.00685901 48.3646C-0.0456848 48.6952 0.210346 48.9932 0.545671 48.9932H3.66486C4.11196 48.9932 4.49219 48.6684 4.56193 48.2261L5.27461 43.7073C5.3434 43.265 5.72458 42.9402 6.17072 42.9402H8.23904C12.5429 42.9402 15.0267 40.8575 15.6754 36.7305C15.9678 34.9249 15.6878 33.5062 14.8424 32.5126C13.9138 31.4216 12.2668 30.8446 10.08 30.8446ZM10.8337 36.9636C10.4764 39.308 8.68518 39.308 6.95315 39.308H5.96723L6.65891 34.9296C6.69998 34.665 6.92927 34.4701 7.19676 34.4701H7.64864C8.82848 34.4701 9.94146 34.4701 10.5166 35.1427C10.8595 35.5439 10.9646 36.1401 10.8337 36.9636Z" fill="#253B80"/>
<path d="M29.6102 36.8882H26.4815C26.2149 36.8882 25.9847 37.0831 25.9436 37.3478L25.8051 38.2229L25.5863 37.9057C24.909 36.9226 23.3986 36.594 21.891 36.594C18.4337 36.594 15.4807 39.2126 14.9056 42.8859C14.6066 44.7182 15.0317 46.4703 16.0711 47.6922C17.0245 48.8157 18.3888 49.2838 20.0119 49.2838C22.7977 49.2838 24.3424 47.4925 24.3424 47.4925L24.203 48.3619C24.1504 48.6944 24.4065 48.9924 24.7399 48.9924H27.5581C28.0062 48.9924 28.3845 48.6676 28.4552 48.2253L30.1461 37.5169C30.1996 37.1873 29.9446 36.8882 29.6102 36.8882ZM25.2491 42.9776C24.9472 44.765 23.5285 45.9649 21.7191 45.9649C20.8105 45.9649 20.0845 45.6736 19.6183 45.1214C19.1559 44.573 18.9801 43.7925 19.1272 42.9231C19.4091 41.151 20.8516 39.9119 22.6333 39.9119C23.5218 39.9119 24.244 40.2071 24.7198 40.7641C25.1965 41.3268 25.3857 42.112 25.2491 42.9776Z" fill="#253B80"/>
<path d="M46.2733 36.8881H43.1292C42.8293 36.8881 42.5474 37.0371 42.3774 37.2864L38.0411 43.6739L36.203 37.5358C36.0874 37.1517 35.733 36.8881 35.3317 36.8881H32.2422C31.8667 36.8881 31.6059 37.2549 31.7253 37.6084L35.1884 47.7713L31.9326 52.3675C31.6766 52.7295 31.9346 53.2273 32.3769 53.2273H35.5171C35.8151 53.2273 36.0941 53.0821 36.2632 52.8375L46.7204 37.7431C46.9707 37.382 46.7137 36.8881 46.2733 36.8881Z" fill="#253B80"/>
</svg>
