<svg width="52" height="18" viewBox="0 0 52 18" fill="none" xmlns="http://www.w3.org/2000/svg">
<path d="M25.747 0.86694L22.273 17.1087H18.0709L21.5453 0.86694H25.747ZM43.4248 11.3545L45.6364 5.25534L46.9091 11.3545H43.4248ZM48.1146 17.1087H52L48.6056 0.86694H45.0216C44.2139 0.86694 43.533 1.33526 43.2316 2.05747L36.9268 17.1087H41.3397L42.2157 14.6831H47.6058L48.1146 17.1087ZM37.1456 11.8063C37.1639 7.51987 31.22 7.28242 31.2598 5.36713C31.2726 4.7852 31.8279 4.16527 33.0414 4.00673C33.6431 3.92929 35.3034 3.86646 37.1854 4.73369L37.9215 1.28814C36.9107 0.922466 35.6099 0.570312 33.9912 0.570312C29.8373 0.570312 26.9153 2.77675 26.8919 5.93883C26.8652 8.27714 28.9792 9.58091 30.5687 10.3597C32.2074 11.1557 32.7565 11.6661 32.7485 12.3773C32.7371 13.467 31.4418 13.9496 30.2355 13.9679C28.1219 14.0007 26.8966 13.3965 25.9202 12.9414L25.1574 16.502C26.1408 16.952 27.9527 17.3436 29.8289 17.3637C34.2451 17.3637 37.1325 15.1832 37.1456 11.8063ZM19.7429 0.86694L12.9347 17.1087H8.4937L5.14312 4.14664C4.94001 3.34955 4.76284 3.05657 4.14511 2.71976C3.13468 2.17108 1.4667 1.65782 0 1.33855L0.099364 0.86694H7.2491C8.15981 0.86694 8.97919 1.47298 9.18777 2.52213L10.9577 11.9214L15.3285 0.86694H19.7429Z" fill="#1434CB"/>
</svg>
